<?xml version="1.0" encoding="UTF-8"?>
<svg id="Layer_1" data-name="Layer 1" xmlns="http://www.w3.org/2000/svg" viewBox="0 0 1282.44 564.36">
  <defs>
    <style>
      .cls-1 {
        fill: #002924;
      }
    </style>
  </defs>
  <g>
    <path class="cls-1" d="M532.2,299.59c2.2,4.24,5.13,7.67,8.77,10.3,3.64,2.63,7.92,4.58,12.84,5.85,4.92,1.27,10,1.91,15.26,1.91,3.56,0,7.38-.29,11.44-.89,4.07-.59,7.88-1.74,11.44-3.43,3.56-1.69,6.52-4.03,8.9-6.99,2.37-2.96,3.56-6.74,3.56-11.32,0-4.92-1.57-8.9-4.7-11.95-3.14-3.05-7.25-5.6-12.33-7.63-5.09-2.04-10.85-3.82-17.29-5.34-6.45-1.53-12.97-3.22-19.58-5.09-6.78-1.69-13.4-3.77-19.84-6.23-6.45-2.46-12.21-5.64-17.29-9.54-5.09-3.9-9.2-8.77-12.33-14.62-3.14-5.85-4.7-12.93-4.7-21.23,0-9.32,1.99-17.42,5.98-24.29,3.98-6.87,9.19-12.59,15.64-17.17,6.44-4.58,13.73-7.97,21.87-10.17,8.14-2.2,16.28-3.31,24.41-3.31,9.49,0,18.6,1.06,27.34,3.18,8.73,2.12,16.49,5.55,23.27,10.3,6.78,4.75,12.16,10.81,16.15,18.18,3.98,7.38,5.98,16.32,5.98,26.83h-38.65c-.34-5.42-1.49-9.92-3.43-13.48-1.95-3.56-4.54-6.36-7.76-8.39-3.22-2.03-6.91-3.47-11.06-4.32-4.16-.85-8.69-1.27-13.61-1.27-3.22,0-6.44.34-9.66,1.02-3.22.68-6.15,1.87-8.77,3.56-2.63,1.7-4.79,3.82-6.48,6.36-1.7,2.54-2.54,5.77-2.54,9.66,0,3.56.68,6.44,2.03,8.65,1.35,2.21,4.03,4.24,8.01,6.1,3.98,1.87,9.49,3.73,16.53,5.6,7.03,1.87,16.23,4.24,27.59,7.12,3.39.68,8.09,1.91,14.11,3.69,6.02,1.78,11.99,4.62,17.93,8.52,5.93,3.9,11.06,9.12,15.39,15.64,4.32,6.53,6.48,14.88,6.48,25.05,0,8.31-1.61,16.02-4.83,23.14-3.22,7.12-8.01,13.27-14.37,18.44-6.36,5.17-14.24,9.2-23.65,12.08-9.41,2.88-20.3,4.32-32.68,4.32-10.01,0-19.71-1.23-29.12-3.69-9.41-2.46-17.72-6.31-24.92-11.57-7.21-5.25-12.93-11.95-17.17-20.09-4.24-8.14-6.27-17.8-6.1-28.99h38.65c0,6.1,1.1,11.28,3.31,15.51Z"/>
    <path class="cls-1" d="M730.05,212.87v24.16h-26.45v65.1c0,6.1,1.02,10.17,3.05,12.21,2.03,2.04,6.1,3.05,12.21,3.05,2.03,0,3.98-.08,5.85-.25,1.86-.17,3.64-.42,5.34-.76v27.97c-3.05.51-6.45.85-10.17,1.02-3.73.17-7.38.25-10.94.25-5.59,0-10.9-.38-15.89-1.15-5-.76-9.41-2.25-13.22-4.45-3.81-2.2-6.83-5.34-9.03-9.41-2.21-4.07-3.31-9.41-3.31-16.02v-77.56h-21.87v-24.16h21.87v-39.42h36.11v39.42h26.45Z"/>
    <path class="cls-1" d="M776.58,212.87v24.41h.51c1.69-4.07,3.98-7.84,6.87-11.32,2.88-3.47,6.19-6.44,9.92-8.9,3.73-2.45,7.71-4.36,11.95-5.72,4.24-1.35,8.65-2.03,13.22-2.03,2.37,0,5,.43,7.88,1.27v33.57c-1.7-.34-3.73-.64-6.1-.89-2.38-.25-4.66-.38-6.87-.38-6.61,0-12.21,1.1-16.78,3.31-4.58,2.21-8.27,5.21-11.06,9.03-2.8,3.81-4.79,8.26-5.98,13.35-1.19,5.09-1.78,10.6-1.78,16.53v59.25h-36.11v-131.48h34.33Z"/>
    <path class="cls-1" d="M832.02,253.31c.51-8.48,2.63-15.51,6.36-21.11,3.73-5.6,8.48-10.09,14.24-13.48,5.76-3.39,12.25-5.81,19.45-7.25,7.2-1.44,14.45-2.16,21.74-2.16,6.61,0,13.31.47,20.09,1.4,6.78.93,12.97,2.76,18.56,5.47,5.6,2.71,10.17,6.49,13.73,11.32,3.56,4.83,5.34,11.23,5.34,19.2v68.41c0,5.94.34,11.61,1.02,17.04.67,5.43,1.86,9.5,3.56,12.21h-36.62c-.68-2.04-1.23-4.11-1.65-6.23-.43-2.12-.72-4.28-.89-6.48-5.77,5.94-12.55,10.09-20.34,12.46-7.8,2.37-15.77,3.56-23.9,3.56-6.27,0-12.12-.76-17.55-2.29-5.43-1.53-10.17-3.9-14.24-7.12-4.07-3.22-7.25-7.29-9.54-12.21-2.29-4.92-3.43-10.76-3.43-17.55,0-7.46,1.31-13.61,3.94-18.44,2.63-4.83,6.02-8.69,10.17-11.57,4.15-2.88,8.9-5.04,14.24-6.49,5.34-1.44,10.72-2.58,16.15-3.43,5.42-.85,10.76-1.53,16.02-2.04,5.25-.51,9.92-1.27,13.99-2.29,4.07-1.02,7.29-2.5,9.66-4.45,2.37-1.95,3.47-4.79,3.31-8.52,0-3.9-.64-6.99-1.91-9.28-1.27-2.29-2.97-4.07-5.09-5.34-2.12-1.27-4.58-2.12-7.37-2.54-2.8-.42-5.81-.64-9.03-.64-7.12,0-12.71,1.53-16.78,4.58-4.07,3.05-6.44,8.14-7.12,15.26h-36.11ZM915.43,280.01c-1.53,1.36-3.43,2.42-5.72,3.18s-4.75,1.4-7.38,1.91c-2.63.51-5.38.93-8.26,1.27-2.88.34-5.77.76-8.65,1.27-2.71.51-5.38,1.19-8.01,2.04-2.63.85-4.92,1.99-6.87,3.43-1.95,1.44-3.52,3.27-4.71,5.47-1.19,2.21-1.78,5-1.78,8.39s.59,5.94,1.78,8.14c1.18,2.21,2.8,3.94,4.83,5.21,2.04,1.27,4.41,2.16,7.12,2.67,2.71.51,5.51.76,8.39.76,7.12,0,12.63-1.18,16.53-3.56,3.9-2.37,6.78-5.21,8.65-8.52,1.86-3.31,3.01-6.65,3.43-10.04.42-3.39.64-6.1.64-8.14v-13.48Z"/>
    <path class="cls-1" d="M1041.56,212.87v24.16h-26.45v65.1c0,6.1,1.02,10.17,3.05,12.21,2.04,2.04,6.1,3.05,12.21,3.05,2.04,0,3.98-.08,5.85-.25,1.86-.17,3.64-.42,5.34-.76v27.97c-3.05.51-6.44.85-10.17,1.02-3.73.17-7.37.25-10.93.25-5.59,0-10.9-.38-15.89-1.15-5-.76-9.41-2.25-13.22-4.45-3.81-2.2-6.83-5.34-9.03-9.41-2.21-4.07-3.31-9.41-3.31-16.02v-77.56h-21.87v-24.16h21.87v-39.42h36.11v39.42h26.45Z"/>
    <path class="cls-1" d="M1052.24,253.31c.51-8.48,2.63-15.51,6.36-21.11,3.73-5.6,8.48-10.09,14.24-13.48,5.76-3.39,12.25-5.81,19.45-7.25,7.2-1.44,14.45-2.16,21.74-2.16,6.61,0,13.31.47,20.09,1.4,6.78.93,12.97,2.76,18.56,5.47,5.6,2.71,10.17,6.49,13.73,11.32,3.56,4.83,5.34,11.23,5.34,19.2v68.41c0,5.94.34,11.61,1.02,17.04.67,5.43,1.86,9.5,3.56,12.21h-36.62c-.68-2.04-1.23-4.11-1.65-6.23-.43-2.12-.72-4.28-.89-6.48-5.77,5.94-12.55,10.09-20.34,12.46-7.8,2.37-15.77,3.56-23.9,3.56-6.27,0-12.12-.76-17.55-2.29-5.43-1.53-10.17-3.9-14.24-7.12-4.07-3.22-7.25-7.29-9.54-12.21-2.29-4.92-3.43-10.76-3.43-17.55,0-7.46,1.31-13.61,3.94-18.44,2.63-4.83,6.02-8.69,10.17-11.57,4.15-2.88,8.9-5.04,14.24-6.49,5.34-1.44,10.72-2.58,16.15-3.43,5.42-.85,10.76-1.53,16.02-2.04,5.25-.51,9.92-1.27,13.99-2.29,4.07-1.02,7.29-2.5,9.66-4.45,2.37-1.95,3.47-4.79,3.31-8.52,0-3.9-.64-6.99-1.91-9.28-1.27-2.29-2.97-4.07-5.09-5.34-2.12-1.27-4.58-2.12-7.37-2.54-2.8-.42-5.81-.64-9.03-.64-7.12,0-12.71,1.53-16.78,4.58-4.07,3.05-6.44,8.14-7.12,15.26h-36.11ZM1135.65,280.01c-1.53,1.36-3.43,2.42-5.72,3.18s-4.75,1.4-7.38,1.91c-2.63.51-5.38.93-8.26,1.27-2.88.34-5.77.76-8.65,1.27-2.71.51-5.38,1.19-8.01,2.04-2.63.85-4.92,1.99-6.87,3.43-1.95,1.44-3.52,3.27-4.71,5.47-1.19,2.21-1.78,5-1.78,8.39s.59,5.94,1.78,8.14c1.18,2.21,2.8,3.94,4.83,5.21,2.04,1.27,4.41,2.16,7.12,2.67,2.71.51,5.51.76,8.39.76,7.12,0,12.63-1.18,16.53-3.56,3.9-2.37,6.78-5.21,8.65-8.52,1.86-3.31,3.01-6.65,3.43-10.04.42-3.39.64-6.1.64-8.14v-13.48Z"/>
  </g>
  <path class="cls-1" d="M106.1,206.18c29.91-12.33,115.08-46.14,149.73-46.14s119.82,33.81,149.73,46.14v-47.02c-29.91-12.33-115.08-46.14-149.73-46.14-34.64,0-119.82,33.81-149.73,46.14v47.02Z"/>
  <path class="cls-1" d="M405.55,297.7c-29.91,12.33-115.08,46.14-149.73,46.14s-119.82-33.81-149.73-46.14v47.02c29.91,12.33,115.08,46.14,149.73,46.14s119.82-33.81,149.73-46.14v-47.02Z"/>
  <path class="cls-1" d="M255.82,227.85c-39-14.27-78.01-28.55-149.73-17.33v48.18c71.72-11.22,110.72,3.06,149.73,17.33,39,14.27,78,28.55,149.73,17.33v-48.18c-71.72,11.22-110.72-3.06-149.73-17.33Z"/>
  <g>
    <path class="cls-1" d="M531.37,405.63c-.35-1.36-.84-2.62-1.45-3.77-.62-1.14-1.41-2.14-2.38-2.97-.97-.84-2.1-1.49-3.4-1.95-1.3-.46-2.81-.69-4.53-.69-2.51,0-4.68.51-6.51,1.52-1.83,1.01-3.32,2.37-4.46,4.06-1.15,1.7-1.99,3.62-2.54,5.78s-.83,4.36-.83,6.61.27,4.45.83,6.61,1.4,4.09,2.54,5.78c1.14,1.7,2.63,3.05,4.46,4.06,1.83,1.01,4,1.52,6.51,1.52,1.85,0,3.48-.32,4.89-.96,1.41-.64,2.62-1.52,3.63-2.64,1.01-1.12,1.81-2.43,2.38-3.93.57-1.5.95-3.11,1.12-4.82h8.06c-.18,2.82-.78,5.4-1.82,7.73-1.04,2.33-2.43,4.35-4.2,6.04-1.76,1.7-3.83,3.01-6.21,3.93-2.38.93-5,1.39-7.86,1.39-3.52,0-6.68-.65-9.48-1.95s-5.16-3.07-7.1-5.32-3.42-4.87-4.46-7.86c-1.04-2.99-1.55-6.19-1.55-9.58s.52-6.52,1.55-9.51c1.03-3,2.52-5.62,4.46-7.86s4.31-4.03,7.1-5.35,5.96-1.98,9.48-1.98c2.64,0,5.13.36,7.47,1.09,2.33.73,4.39,1.78,6.18,3.17,1.78,1.39,3.23,3.07,4.33,5.05,1.1,1.98,1.78,4.25,2.05,6.8h-8.26Z"/>
    <path class="cls-1" d="M560.51,438.73c-2.73,0-5.16-.45-7.3-1.35-2.14-.9-3.94-2.15-5.42-3.73-1.48-1.59-2.6-3.48-3.37-5.68-.77-2.2-1.16-4.62-1.16-7.27s.38-5,1.16-7.2c.77-2.2,1.89-4.1,3.37-5.68,1.48-1.59,3.28-2.83,5.42-3.73,2.14-.9,4.57-1.35,7.3-1.35s5.16.45,7.3,1.35c2.14.9,3.94,2.15,5.42,3.73,1.48,1.58,2.6,3.48,3.37,5.68.77,2.2,1.16,4.6,1.16,7.2s-.39,5.07-1.16,7.27c-.77,2.2-1.89,4.1-3.37,5.68-1.48,1.58-3.28,2.83-5.42,3.73-2.14.9-4.57,1.35-7.3,1.35ZM560.51,432.78c1.67,0,3.13-.35,4.36-1.06,1.23-.7,2.25-1.63,3.04-2.78.79-1.14,1.38-2.43,1.75-3.87.37-1.43.56-2.9.56-4.39s-.19-2.91-.56-4.36c-.38-1.45-.96-2.74-1.75-3.87-.79-1.12-1.81-2.04-3.04-2.74-1.23-.7-2.69-1.06-4.36-1.06s-3.13.35-4.36,1.06c-1.23.71-2.25,1.62-3.04,2.74-.79,1.12-1.38,2.41-1.75,3.87-.37,1.45-.56,2.91-.56,4.36s.19,2.96.56,4.39c.37,1.43.96,2.72,1.75,3.87.79,1.15,1.81,2.07,3.04,2.78,1.23.71,2.69,1.06,4.36,1.06Z"/>
    <path class="cls-1" d="M587.73,426.84c.22,2.2,1.06,3.74,2.51,4.62,1.45.88,3.19,1.32,5.22,1.32.7,0,1.51-.05,2.41-.17.9-.11,1.75-.32,2.54-.63.79-.31,1.44-.76,1.95-1.35.51-.59.74-1.38.69-2.34s-.4-1.76-1.06-2.38c-.66-.62-1.51-1.11-2.54-1.49-1.04-.37-2.21-.69-3.53-.96s-2.67-.55-4.03-.86c-1.41-.31-2.76-.68-4.06-1.12-1.3-.44-2.47-1.03-3.5-1.78s-1.86-1.71-2.48-2.87c-.62-1.17-.92-2.61-.92-4.33,0-1.85.45-3.4,1.35-4.66.9-1.26,2.05-2.27,3.44-3.04,1.39-.77,2.93-1.31,4.62-1.62,1.7-.31,3.31-.46,4.86-.46,1.76,0,3.45.19,5.05.56,1.61.38,3.06.98,4.36,1.82,1.3.84,2.38,1.93,3.24,3.27.86,1.34,1.4,2.96,1.62,4.86h-7.86c-.35-1.8-1.18-3.02-2.48-3.63-1.3-.62-2.79-.92-4.46-.92-.53,0-1.16.04-1.88.13-.73.09-1.41.25-2.05.5-.64.24-1.18.59-1.62,1.06-.44.46-.66,1.07-.66,1.82,0,.92.32,1.67.96,2.25.64.57,1.47,1.05,2.51,1.42,1.03.38,2.21.69,3.53.96,1.32.26,2.69.55,4.1.86,1.36.31,2.71.68,4.03,1.12,1.32.44,2.5,1.04,3.53,1.78,1.03.75,1.87,1.7,2.51,2.84.64,1.15.96,2.56.96,4.23,0,2.03-.46,3.74-1.39,5.15-.92,1.41-2.12,2.56-3.6,3.44-1.48.88-3.12,1.52-4.92,1.92-1.81.4-3.59.59-5.35.59-2.16,0-4.15-.24-5.98-.73-1.83-.48-3.41-1.22-4.76-2.21-1.34-.99-2.4-2.22-3.17-3.7-.77-1.48-1.18-3.23-1.22-5.25h7.53Z"/>
    <path class="cls-1" d="M612.24,403.65h5.68v-10.24h7.53v10.24h6.81v5.62h-6.81v18.24c0,.79.03,1.48.1,2.05.07.57.22,1.06.46,1.45.24.4.61.69,1.09.89.48.2,1.14.3,1.98.3.53,0,1.06,0,1.59-.03s1.06-.1,1.59-.23v5.81c-.84.09-1.65.18-2.45.26-.79.09-1.61.13-2.44.13-1.98,0-3.58-.19-4.79-.56-1.21-.37-2.16-.92-2.84-1.65-.68-.73-1.15-1.64-1.39-2.74-.24-1.1-.39-2.36-.43-3.77v-20.15h-5.68v-5.62Z"/>
    <path class="cls-1" d="M688.94,405.63c-.35-1.36-.84-2.62-1.45-3.77-.62-1.14-1.41-2.14-2.38-2.97-.97-.84-2.1-1.49-3.4-1.95-1.3-.46-2.81-.69-4.53-.69-2.51,0-4.68.51-6.51,1.52-1.83,1.01-3.32,2.37-4.46,4.06-1.15,1.7-1.99,3.62-2.54,5.78s-.83,4.36-.83,6.61.27,4.45.83,6.61,1.4,4.09,2.54,5.78c1.14,1.7,2.63,3.05,4.46,4.06,1.83,1.01,4,1.52,6.51,1.52,1.85,0,3.48-.32,4.89-.96,1.41-.64,2.62-1.52,3.63-2.64,1.01-1.12,1.81-2.43,2.38-3.93.57-1.5.95-3.11,1.12-4.82h8.06c-.18,2.82-.78,5.4-1.82,7.73-1.04,2.33-2.43,4.35-4.2,6.04-1.76,1.7-3.83,3.01-6.21,3.93-2.38.93-5,1.39-7.86,1.39-3.52,0-6.68-.65-9.48-1.95s-5.16-3.07-7.1-5.32-3.42-4.87-4.46-7.86c-1.04-2.99-1.55-6.19-1.55-9.58s.52-6.52,1.55-9.51c1.03-3,2.52-5.62,4.46-7.86s4.31-4.03,7.1-5.35,5.96-1.98,9.48-1.98c2.64,0,5.13.36,7.47,1.09,2.33.73,4.39,1.78,6.18,3.17,1.78,1.39,3.23,3.07,4.33,5.05,1.1,1.98,1.78,4.25,2.05,6.8h-8.26Z"/>
    <path class="cls-1" d="M718.08,438.73c-2.73,0-5.16-.45-7.3-1.35-2.14-.9-3.94-2.15-5.42-3.73-1.48-1.59-2.6-3.48-3.37-5.68-.77-2.2-1.16-4.62-1.16-7.27s.38-5,1.16-7.2c.77-2.2,1.89-4.1,3.37-5.68,1.48-1.59,3.28-2.83,5.42-3.73,2.14-.9,4.57-1.35,7.3-1.35s5.16.45,7.3,1.35c2.14.9,3.94,2.15,5.42,3.73,1.48,1.58,2.6,3.48,3.37,5.68.77,2.2,1.16,4.6,1.16,7.2s-.39,5.07-1.16,7.27c-.77,2.2-1.89,4.1-3.37,5.68-1.48,1.58-3.28,2.83-5.42,3.73-2.14.9-4.57,1.35-7.3,1.35ZM718.08,432.78c1.67,0,3.13-.35,4.36-1.06,1.23-.7,2.25-1.63,3.04-2.78.79-1.14,1.38-2.43,1.75-3.87.37-1.43.56-2.9.56-4.39s-.19-2.91-.56-4.36c-.38-1.45-.96-2.74-1.75-3.87-.79-1.12-1.81-2.04-3.04-2.74-1.23-.7-2.69-1.06-4.36-1.06s-3.13.35-4.36,1.06c-1.23.71-2.25,1.62-3.04,2.74-.79,1.12-1.38,2.41-1.75,3.87-.37,1.45-.56,2.91-.56,4.36s.19,2.96.56,4.39c.37,1.43.96,2.72,1.75,3.87.79,1.15,1.81,2.07,3.04,2.78,1.23.71,2.69,1.06,4.36,1.06Z"/>
    <path class="cls-1" d="M738.3,403.65h7.14v5.02l.13.13c1.15-1.89,2.64-3.38,4.49-4.46,1.85-1.08,3.9-1.62,6.14-1.62,3.74,0,6.69.97,8.85,2.91,2.16,1.94,3.24,4.85,3.24,8.72v23.45h-7.53v-21.47c-.09-2.69-.66-4.63-1.72-5.85-1.06-1.21-2.71-1.82-4.96-1.82-1.28,0-2.42.23-3.44.69-1.01.46-1.87,1.1-2.58,1.92-.71.82-1.25,1.77-1.65,2.87-.4,1.1-.59,2.27-.59,3.5v20.15h-7.53v-34.16Z"/>
    <path class="cls-1" d="M779.26,426.84c.22,2.2,1.06,3.74,2.51,4.62,1.45.88,3.19,1.32,5.22,1.32.7,0,1.51-.05,2.41-.17.9-.11,1.75-.32,2.54-.63.79-.31,1.44-.76,1.95-1.35.51-.59.74-1.38.69-2.34s-.4-1.76-1.06-2.38c-.66-.62-1.51-1.11-2.54-1.49-1.04-.37-2.21-.69-3.53-.96s-2.67-.55-4.03-.86c-1.41-.31-2.76-.68-4.06-1.12-1.3-.44-2.47-1.03-3.5-1.78s-1.86-1.71-2.48-2.87c-.62-1.17-.92-2.61-.92-4.33,0-1.85.45-3.4,1.35-4.66.9-1.26,2.05-2.27,3.44-3.04,1.39-.77,2.93-1.31,4.62-1.62,1.7-.31,3.31-.46,4.86-.46,1.76,0,3.45.19,5.05.56,1.61.38,3.06.98,4.36,1.82,1.3.84,2.38,1.93,3.24,3.27.86,1.34,1.4,2.96,1.62,4.86h-7.86c-.35-1.8-1.18-3.02-2.48-3.63-1.3-.62-2.79-.92-4.46-.92-.53,0-1.16.04-1.88.13-.73.09-1.41.25-2.05.5-.64.24-1.18.59-1.62,1.06-.44.46-.66,1.07-.66,1.82,0,.92.32,1.67.96,2.25.64.57,1.47,1.05,2.51,1.42,1.03.38,2.21.69,3.53.96,1.32.26,2.69.55,4.1.86,1.36.31,2.71.68,4.03,1.12,1.32.44,2.5,1.04,3.53,1.78,1.03.75,1.87,1.7,2.51,2.84.64,1.15.96,2.56.96,4.23,0,2.03-.46,3.74-1.39,5.15-.92,1.41-2.12,2.56-3.6,3.44-1.48.88-3.12,1.52-4.92,1.92-1.81.4-3.59.59-5.35.59-2.16,0-4.15-.24-5.98-.73-1.83-.48-3.41-1.22-4.76-2.21-1.34-.99-2.4-2.22-3.17-3.7-.77-1.48-1.18-3.23-1.22-5.25h7.53Z"/>
    <path class="cls-1" d="M835.88,437.8h-7.4v-4.76h-.13c-.92,1.72-2.3,3.09-4.13,4.13s-3.69,1.55-5.58,1.55c-4.49,0-7.74-1.11-9.75-3.34-2-2.22-3.01-5.58-3.01-10.08v-21.67h7.53v20.94c0,3,.57,5.11,1.72,6.34,1.14,1.23,2.75,1.85,4.82,1.85,1.58,0,2.91-.24,3.96-.73,1.06-.48,1.92-1.13,2.58-1.95.66-.81,1.13-1.79,1.42-2.94.29-1.15.43-2.38.43-3.7v-19.82h7.53v34.16Z"/>
    <path class="cls-1" d="M841.36,390.63h7.53v47.17h-7.53v-47.17Z"/>
    <path class="cls-1" d="M852.99,403.65h5.68v-10.24h7.53v10.24h6.81v5.62h-6.81v18.24c0,.79.03,1.48.1,2.05.07.57.22,1.06.46,1.45.24.4.61.69,1.09.89.48.2,1.14.3,1.98.3.53,0,1.06,0,1.59-.03s1.06-.1,1.59-.23v5.81c-.84.09-1.65.18-2.45.26-.79.09-1.61.13-2.44.13-1.98,0-3.58-.19-4.79-.56-1.21-.37-2.16-.92-2.84-1.65-.68-.73-1.15-1.64-1.39-2.74-.24-1.1-.39-2.36-.43-3.77v-20.15h-5.68v-5.62Z"/>
    <path class="cls-1" d="M877.3,390.63h7.53v7.13h-7.53v-7.13ZM877.3,403.65h7.53v34.16h-7.53v-34.16Z"/>
    <path class="cls-1" d="M890.38,403.65h7.14v5.02l.13.13c1.15-1.89,2.64-3.38,4.49-4.46,1.85-1.08,3.9-1.62,6.14-1.62,3.74,0,6.69.97,8.85,2.91,2.16,1.94,3.24,4.85,3.24,8.72v23.45h-7.53v-21.47c-.09-2.69-.66-4.63-1.72-5.85-1.06-1.21-2.71-1.82-4.96-1.82-1.28,0-2.42.23-3.44.69-1.01.46-1.87,1.1-2.58,1.92-.71.82-1.25,1.77-1.65,2.87-.4,1.1-.59,2.27-.59,3.5v20.15h-7.53v-34.16Z"/>
    <path class="cls-1" d="M957.24,436.02c0,5.15-1.44,9-4.33,11.53-2.89,2.53-7.04,3.8-12.45,3.8-1.72,0-3.45-.18-5.19-.53-1.74-.35-3.33-.95-4.76-1.78-1.43-.84-2.63-1.94-3.6-3.3-.97-1.37-1.54-3.04-1.72-5.02h7.53c.22,1.06.59,1.92,1.12,2.58.53.66,1.16,1.18,1.88,1.55.73.37,1.53.62,2.41.73.88.11,1.81.17,2.78.17,3.04,0,5.26-.75,6.67-2.25,1.41-1.5,2.11-3.66,2.11-6.47v-5.22h-.13c-1.06,1.89-2.5,3.37-4.33,4.43-1.83,1.06-3.8,1.59-5.91,1.59-2.73,0-5.05-.47-6.97-1.42-1.92-.95-3.5-2.25-4.76-3.9-1.25-1.65-2.17-3.56-2.74-5.71s-.86-4.47-.86-6.94c0-2.29.35-4.47,1.06-6.54.7-2.07,1.72-3.89,3.04-5.45,1.32-1.56,2.94-2.81,4.86-3.73s4.08-1.39,6.51-1.39c2.16,0,4.14.45,5.95,1.35,1.81.9,3.19,2.32,4.16,4.26h.13v-4.69h7.53v32.37ZM940.53,431.86c1.67,0,3.09-.34,4.26-1.02,1.17-.68,2.11-1.58,2.84-2.71.73-1.12,1.26-2.4,1.59-3.83s.5-2.87.5-4.33-.18-2.86-.53-4.23c-.35-1.36-.89-2.58-1.62-3.63-.73-1.06-1.67-1.89-2.84-2.51-1.17-.62-2.57-.92-4.2-.92s-3.08.35-4.23,1.06c-1.15.71-2.07,1.62-2.78,2.74-.71,1.12-1.21,2.4-1.52,3.83-.31,1.43-.46,2.85-.46,4.26s.17,2.79.53,4.13c.35,1.34.89,2.54,1.62,3.6.73,1.06,1.65,1.92,2.78,2.58,1.12.66,2.48.99,4.06.99Z"/>
  </g>
</svg>